<?xml version="1.0" encoding="utf-8" standalone="yes"?><svg height="5.25cm" viewBox="0 0 1200 400" version="1.1" width="12cm" xmlns="http://www.w3.org/2000/svg" xmlns:xlink="http://www.w3.org/1999/xlink"><rect x="1" y="1" width="1198" stroke="rgb(0,0,255)" stroke-width="1" fill="none" height="398"></rect><path fill="rgb(255,0,0)" stroke="rgb(0,0,255)" d="M300 200,l-150 0,a150,150 0 1 0 150 -150,z" stroke-width="5"></path><path fill="rgb(255,255,0)" stroke-width="5" d="M275 175,l0 -150,a150,150 0 0 0 -150 150,z" stroke="rgb(0,0,255)"></path><path stroke-width="5" d="M600 350,l50 -25,a25,25 -30 0 1 50 -25,l50 -25,a25,50 -30 0 1 50 -25,l50 -25,a25,75 -30 0 1 50 -25,l50 -25,a25,100 -30 0 1 50 -25,l50 -25" fill="none" stroke="rgb(255,0,0)"></path></svg>