<?xml version="1.0" encoding="utf-8" standalone="yes"?><svg height="2.7cm" version="1.1" viewBox="0 0 1350 270" xmlns:xlink="http://www.w3.org/1999/xlink" xmlns="http://www.w3.org/2000/svg" width="13.5cm"><defs><filter y="0" height="400" id="ShiftBGAndBlur" width="1200" x="0" filterUnits="userSpaceOnUse"><feOffset dx="0" in="BackgroundImage" dy="125"></feOffset><feGaussianBlur stdDeviation="8"></feGaussianBlur></filter><filter width="1200" height="400" id="ShiftBGAndBlur_WithSourceGraphic" y="0" filterUnits="userSpaceOnUse" x="0"><feOffset dy="125" dx="0" in="BackgroundImage"></feOffset><feGaussianBlur stdDeviation="8" result="blur"></feGaussianBlur><feMerge><feMergeNode in="blur"></feMergeNode><feMergeNode in="SourceGraphic"></feMergeNode></feMerge></filter></defs><g transform="translate(0,0)"><rect height="100" width="100" fill="rgb(255,0,0)" y="25" x="25"></rect><g opacity="0.5"><circle cx="125" r="45" cy="75" fill="rgb(0,128,0)"></circle><polygon fill="rgb(0,0,255)" points="160 25,160 125,240 75"></polygon></g><rect x="5" width="260" fill="none" stroke="rgb(0,0,255)" y="5" height="260"></rect></g><g transform="translate(270,0)" enable-background="new"><rect fill="rgb(255,0,0)" height="100" width="100" x="25" y="25"></rect><g opacity="0.5"><circle fill="rgb(0,128,0)" r="45" cy="75" cx="125"></circle><polygon points="160 25,160 125,240 75" fill="rgb(0,0,255)"></polygon></g><g filter="url(#ShiftBGAndBlur)"></g><rect stroke="rgb(0,0,255)" height="260" x="5" fill="none" y="5" width="260"></rect></g><g transform="translate(540,0)" enable-background="new"><rect x="25" height="100" width="100" y="25" fill="rgb(255,0,0)"></rect><g filter="url(#ShiftBGAndBlur)" opacity="0.5"><circle fill="rgb(0,128,0)" cx="125" r="45" cy="75"></circle><polygon fill="rgb(0,0,255)" points="160 25,160 125,240 75"></polygon></g><rect height="260" width="260" y="5" fill="none" x="5" stroke="rgb(0,0,255)"></rect></g><g transform="translate(810,0)" enable-background="new"><rect height="100" fill="rgb(255,0,0)" y="25" x="25" width="100"></rect><g opacity="0.5"><circle cx="125" fill="rgb(0,128,0)" cy="75" r="45"></circle><polygon filter="url(#ShiftBGAndBlur)" points="160 25,160 125,240 75" fill="rgb(0,0,255)"></polygon></g><rect stroke="rgb(0,0,255)" width="260" x="5" fill="none" y="5" height="260"></rect></g><g transform="translate(1080,0)" enable-background="new"><rect height="100" y="25" fill="rgb(255,0,0)" x="25" width="100"></rect><g opacity="0.5"><circle r="45" cy="75" fill="rgb(0,128,0)" cx="125"></circle><polygon fill="rgb(0,0,255)" filter="url(#ShiftBGAndBlur_WithSourceGraphic)" points="160 25,160 125,240 75"></polygon></g><rect y="5" x="5" fill="none" stroke="rgb(0,0,255)" width="260" height="260"></rect></g></svg>